<?xml version="1.0" encoding="UTF-8"?>
<svg width="500px" height="500px" viewBox="0 0 500 500" version="1.1" xmlns="http://www.w3.org/2000/svg" xmlns:xlink="http://www.w3.org/1999/xlink" style="background: #0C0C0D;">
    <!-- Generator: Sketch 47.1 (45422) - http://www.bohemiancoding.com/sketch -->
    <title>logo</title>
    <desc>Created with Sketch.</desc>
    <defs></defs>
    <g id="Page-1" stroke="none" stroke-width="1" fill="none" fill-rule="evenodd">
        <g id="logo">
            <path d="M50,50 L50,450 L450,450 L450,50 M50,50 L450,50 M150,50 L150,450 M250,50 L250,450 M350,50 L350,450 M50,150 L450,150 M450,250 L50,250 M50,350 L450,350" id="Shape" stroke="#134F5F" stroke-width="10" opacity="0.639719203" stroke-linecap="square"></path>
            <g id="{-}" transform="translate(145.000000, 145.000000)">
                <rect id="Rectangle-2" fill="#96D1CF" fill-rule="evenodd" x="0" y="0" width="210" height="210"></rect>
                <path d="M12.6,12.6 L12.6,197.4 L197.4,197.4 L197.4,12.6 L12.6,12.6 Z M0,0 L210,0 L210,210 L0,210 L0,0 Z" id="Rectangle" fill="#103741" fill-rule="nonzero"></path>
                <path d="M52.1365385,140.162791 C52.1365385,137.965105 52.1971148,136.011636 52.3182692,134.302326 C52.4394237,132.593015 52.5807684,130.944775 52.7423077,129.357558 C52.903847,127.770341 53.0451917,126.183147 53.1663462,124.59593 C53.2875006,123.008713 53.3480769,121.238382 53.3480769,119.284884 C53.3480769,118.226739 53.1057717,117.16861 52.6211538,116.110465 C52.136536,115.05232 51.2480834,114.095935 49.9557692,113.241279 C48.6634551,112.386624 46.9471261,111.69477 44.8067308,111.165698 C42.6663355,110.636625 39.9807854,110.331396 36.75,110.25 L36.75,99.75 C39.9807854,99.6686042 42.6663355,99.3633747 44.8067308,98.8343023 C46.9471261,98.3052299 48.6634551,97.6133764 49.9557692,96.7587209 C51.2480834,95.9040655 52.136536,94.9476797 52.6211538,93.8895349 C53.1057717,92.8313901 53.3480769,91.7732611 53.3480769,90.7151163 C53.3480769,88.8430139 53.2875006,87.0930314 53.1663462,85.4651163 C53.0451917,83.8372012 52.903847,82.2296591 52.7423077,80.6424419 C52.5807684,79.0552246 52.4394237,77.3866367 52.3182692,75.6366279 C52.1971148,73.8866192 52.1365385,71.953499 52.1365385,69.8372093 C52.1365385,63.2441531 53.953828,58.7064078 57.5884615,56.2238372 C61.2230951,53.7412667 66.9172689,52.5 74.6711538,52.5 L84,52.5 L84,62.0232558 L79.0326923,62.0232558 C76.5288336,62.0232558 74.4692388,62.1453476 72.8538462,62.3895349 C71.2384535,62.6337222 69.9865429,63.0813921 69.0980769,63.7325581 C68.2096109,64.3837242 67.5836557,65.2587154 67.2201923,66.3575581 C66.856729,67.4564008 66.675,68.8604566 66.675,70.5697674 C66.675,73.8255977 66.7759605,77.0406818 66.9778846,80.2151163 C67.1798087,83.3895508 67.2807692,86.8081212 67.2807692,90.4709302 C67.2807692,95.1104883 66.3519324,98.4680129 64.4942308,100.543605 C62.6365292,102.619196 59.5269449,104.023252 55.1653846,104.755814 L55.1653846,105.244186 C59.5269449,105.976748 62.6365292,107.380804 64.4942308,109.456395 C66.3519324,111.531987 67.2807692,114.889512 67.2807692,119.52907 C67.2807692,123.273275 67.1798087,126.691845 66.9778846,129.784884 C66.7759605,132.877922 66.675,136.093007 66.675,139.430233 C66.675,141.139543 66.856729,142.543599 67.2201923,143.642442 C67.5836557,144.741285 68.2096109,145.616276 69.0980769,146.267442 C69.9865429,146.918608 71.2384535,147.366278 72.8538462,147.610465 C74.4692388,147.854652 76.5288336,147.976744 79.0326923,147.976744 L84,147.976744 L84,157.5 L74.6711538,157.5 C66.9172689,157.5 61.2230951,156.258733 57.5884615,153.776163 C53.953828,151.293592 52.1365385,146.755847 52.1365385,140.162791 Z M157.863462,140.162791 C157.863462,137.965105 157.802885,136.011636 157.681731,134.302326 C157.560576,132.593015 157.419232,130.944775 157.257692,129.357558 C157.096153,127.770341 156.954808,126.183147 156.833654,124.59593 C156.712499,123.008713 156.651923,121.238382 156.651923,119.284884 C156.651923,118.226739 156.894228,117.16861 157.378846,116.110465 C157.863464,115.05232 158.751917,114.095935 160.044231,113.241279 C161.336545,112.386624 163.052874,111.69477 165.193269,111.165698 C167.333665,110.636625 170.019215,110.331396 173.25,110.25 L173.25,99.75 C170.019215,99.6686042 167.333665,99.3633747 165.193269,98.8343023 C163.052874,98.3052299 161.336545,97.6133764 160.044231,96.7587209 C158.751917,95.9040655 157.863464,94.9476797 157.378846,93.8895349 C156.894228,92.8313901 156.651923,91.7732611 156.651923,90.7151163 C156.651923,88.8430139 156.712499,87.0930314 156.833654,85.4651163 C156.954808,83.8372012 157.096153,82.2296591 157.257692,80.6424419 C157.419232,79.0552246 157.560576,77.3866367 157.681731,75.6366279 C157.802885,73.8866192 157.863462,71.953499 157.863462,69.8372093 C157.863462,63.2441531 156.046172,58.7064078 152.411538,56.2238372 C148.776905,53.7412667 143.082731,52.5 135.328846,52.5 L126,52.5 L126,62.0232558 L130.967308,62.0232558 C133.471166,62.0232558 135.530761,62.1453476 137.146154,62.3895349 C138.761547,62.6337222 140.013457,63.0813921 140.901923,63.7325581 C141.790389,64.3837242 142.416344,65.2587154 142.779808,66.3575581 C143.143271,67.4564008 143.325,68.8604566 143.325,70.5697674 C143.325,73.8255977 143.224039,77.0406818 143.022115,80.2151163 C142.820191,83.3895508 142.719231,86.8081212 142.719231,90.4709302 C142.719231,95.1104883 143.648068,98.4680129 145.505769,100.543605 C147.363471,102.619196 150.473055,104.023252 154.834615,104.755814 L154.834615,105.244186 C150.473055,105.976748 147.363471,107.380804 145.505769,109.456395 C143.648068,111.531987 142.719231,114.889512 142.719231,119.52907 C142.719231,123.273275 142.820191,126.691845 143.022115,129.784884 C143.224039,132.877922 143.325,136.093007 143.325,139.430233 C143.325,141.139543 143.143271,142.543599 142.779808,143.642442 C142.416344,144.741285 141.790389,145.616276 140.901923,146.267442 C140.013457,146.918608 138.761547,147.366278 137.146154,147.610465 C135.530761,147.854652 133.471166,147.976744 130.967308,147.976744 L126,147.976744 L126,157.5 L135.328846,157.5 C143.082731,157.5 148.776905,156.258733 152.411538,153.776163 C156.046172,151.293592 157.863462,146.755847 157.863462,140.162791 Z" id="Path" fill="#0C0C0D" fill-rule="evenodd"></path>
            </g>
        </g>
    </g>
</svg>