<?xml version="1.0" standalone="no"?>
<!DOCTYPE svg PUBLIC "-//W3C//DTD SVG 20010904//EN"
 "http://www.w3.org/TR/2001/REC-SVG-20010904/DTD/svg10.dtd">
<svg version="1.0" xmlns="http://www.w3.org/2000/svg"
 width="500.000000pt" height="500.000000pt" viewBox="0 0 500.000000 500.000000"
 preserveAspectRatio="xMidYMid meet">
<metadata>
Created by potrace 1.11, written by Peter Selinger 2001-2013
</metadata>
<g transform="translate(0.000000,500.000000) scale(0.100000,-0.100000)"
fill="#000000" stroke="none">
<path d="M0 2500 l0 -2500 2500 0 2500 0 0 2500 0 2500 -2500 0 -2500 0 0
-2500z m4700 0 l0 -2200 -2200 0 -2200 0 0 2200 0 2200 2200 0 2200 0 0 -2200z"/>
<path d="M1605 3739 c-215 -31 -315 -111 -351 -279 -17 -81 -16 -165 7 -455
14 -184 10 -222 -33 -271 -54 -61 -132 -91 -272 -102 l-81 -7 0 -125 0 -125
81 -7 c134 -11 214 -39 266 -95 54 -57 58 -98 32 -375 -39 -418 19 -554 261
-619 65 -17 119 -22 283 -26 l202 -6 0 116 0 115 -147 3 c-162 4 -194 14 -237
72 -20 28 -21 38 -21 380 0 390 -1 395 -68 466 -34 36 -112 75 -171 86 -46 9
-46 21 0 30 59 11 137 50 171 86 67 71 68 76 68 466 0 342 1 352 21 380 43 58
75 68 237 72 l147 3 0 114 0 114 -167 -1 c-93 -1 -195 -5 -228 -10z"/>
<path d="M3000 3637 l0 -115 148 -3 c161 -4 193 -14 236 -72 20 -28 21 -38 21
-380 0 -390 1 -395 68 -466 34 -36 112 -75 171 -86 20 -4 36 -11 36 -15 0 -4
-16 -11 -36 -15 -59 -11 -137 -50 -171 -86 -67 -71 -68 -76 -68 -466 0 -342
-1 -352 -21 -380 -43 -58 -75 -68 -236 -72 l-148 -3 0 -115 0 -116 203 6 c163
4 217 9 282 26 242 65 300 201 261 619 -26 277 -22 318 32 375 52 56 132 84
266 95 l81 7 0 125 0 125 -81 7 c-183 15 -292 76 -310 175 -4 21 -1 119 7 218
28 357 16 485 -54 577 -79 104 -194 138 -484 145 l-203 6 0 -116z"/>
</g>
</svg>
